<svg width="331" height="60" viewBox="0 0 331 60" fill="none" xmlns="http://www.w3.org/2000/svg">
<rect y="0.12207" width="331" height="59.7559" rx="29.8779" fill="#FFCF70"/>
<path fill-rule="evenodd" clip-rule="evenodd" d="M51.7856 46.0472L51.1936 46.3545C49.1877 47.396 46.6508 47.8779 43.6505 47.8779C39.6768 47.8779 36.4093 46.6131 33.9749 44.0022L33.9731 44.0003L33.9713 43.9984C32.654 42.5718 32.1991 40.9216 32.0573 39.2042C31.9691 38.1359 32.0009 36.93 32.033 35.7096C32.0498 35.0729 32.0667 34.4323 32.0667 33.8052C32.0667 33.2838 32.0587 32.7591 32.0508 32.2366C32.0288 30.7849 32.0071 29.3494 32.1567 28.0456C32.3681 26.2027 32.9296 24.4524 34.3573 22.9168C37.0309 20.0414 40.4854 18.6178 44.625 18.6178C44.7275 18.6178 45.0521 18.5098 45.6301 17.8731C46.1602 17.289 46.7004 16.4919 47.2684 15.6326C47.3147 15.5625 47.3613 15.4918 47.4082 15.4207C47.908 14.6629 48.4397 13.8565 48.9488 13.2695C49.2264 12.9494 49.5606 12.618 49.9455 12.3968C50.349 12.165 50.9237 11.9955 51.5392 12.2464L52.4319 12.6103L47.9877 29.5408L44.7772 40.8432C46.7468 40.8259 48.5214 40.3155 50.1256 39.318L51.7856 38.2858V46.0472ZM44.4646 41.9436C44.2206 41.9387 43.9819 41.925 43.7486 41.9027C43.616 41.89 43.4851 41.8745 43.3559 41.8562L46.9376 29.2472L51.132 13.2685C51.085 13.2493 51.0373 13.2366 50.9889 13.2301C50.6365 13.1822 50.2486 13.4589 49.8332 13.922C49.3559 14.4541 48.8424 15.2323 48.3049 16.0468C47.1485 17.7992 45.8812 19.7198 44.625 19.7198C40.7587 19.7198 37.6006 21.0371 35.1509 23.6718C33.0458 25.9359 33.0885 28.762 33.1397 32.15C33.1478 32.6876 33.1561 33.2393 33.1561 33.8052C33.1561 34.5057 33.1379 35.1813 33.1204 35.832C33.0397 38.8318 32.9732 41.3032 34.7675 43.2461C36.9616 45.5993 39.9226 46.7759 43.6505 46.7759C46.5476 46.7759 48.8961 46.3087 50.6962 45.3742V40.2568C50.3406 40.4779 49.9775 40.6773 49.6067 40.8549C48.0894 41.5821 46.4448 41.9457 44.673 41.9457C44.6031 41.9457 44.5337 41.945 44.4646 41.9436ZM42.6656 41.7276C42.6818 41.3991 42.7177 41.027 42.7696 40.6196C42.8284 40.1582 42.9077 39.6514 43.0022 39.1109C43.2744 37.555 43.6726 35.7205 44.0705 33.8877C45.0853 29.2132 46.0976 24.55 45.0085 24.55C42.5907 24.55 40.6575 25.3663 39.209 26.9989C37.936 28.4336 37.9699 31.6402 37.9969 34.1845C38.0006 34.5354 38.0041 34.8737 38.0041 35.1931C38.0041 35.6132 37.9966 35.9719 37.9901 36.2848C37.9565 37.8841 37.948 38.2892 39.0971 39.5981C39.8022 40.4012 40.6349 40.9983 41.5952 41.3892C41.8188 41.4803 42.0494 41.5602 42.287 41.6289C42.4113 41.6649 42.5375 41.6978 42.6656 41.7276ZM41.7203 40.2431C41.0263 39.9146 40.4274 39.4537 39.9117 38.8664C39.2628 38.1272 39.1564 37.8574 39.1084 37.5808C39.0765 37.3969 39.0663 37.1613 39.0711 36.7575C39.0725 36.6337 39.0755 36.4902 39.0789 36.3303C39.0855 36.0095 39.0936 35.6223 39.0936 35.1931C39.0936 34.8495 39.0899 34.495 39.0861 34.1339C39.0747 33.0478 39.0626 31.9014 39.1493 30.8083C39.2688 29.3015 39.5601 28.253 40.0198 27.735C41.1167 26.4986 42.5443 25.7987 44.3885 25.6727C44.3926 26.0281 44.3545 26.5302 44.268 27.1781C44.052 28.7959 43.5843 30.9876 43.0884 33.2734C43.0602 33.4038 43.0318 33.5344 43.0034 33.6652C42.54 35.7997 42.0663 37.9812 41.7973 39.7172C41.7697 39.8954 41.7439 40.0709 41.7203 40.2431Z" fill="#D2202F"/>
<path fill-rule="evenodd" clip-rule="evenodd" d="M53.0243 46.0472L53.567 46.3545C55.4057 47.396 57.7312 47.8779 60.4815 47.8779C64.1241 47.8779 67.1193 46.6131 69.3508 44.0022L69.3525 44.0003L69.3541 43.9983C70.5617 42.5718 70.9786 40.9215 71.1086 39.2042C71.1894 38.1359 71.1603 36.93 71.1309 35.7096C71.1155 35.0729 71.1 34.4323 71.1 33.8052C71.1 33.2838 71.1073 32.7591 71.1146 32.2366C71.1347 30.7849 71.1547 29.3494 71.0175 28.0456C70.8237 26.2027 70.309 24.4524 69.0003 22.9168C66.5495 20.0414 63.3828 18.6178 59.5882 18.6178C59.4943 18.6178 59.1967 18.5098 58.6669 17.8731C58.181 17.289 57.6857 16.4919 57.1651 15.6326C57.1227 15.5625 57.08 15.4918 57.037 15.4207C56.5788 14.6629 56.0914 13.8565 55.6248 13.2695C55.3702 12.9494 55.0639 12.618 54.7111 12.3968C54.3413 12.165 53.8145 11.9955 53.2502 12.2464L52.4319 12.6103L56.5057 29.5408L59.4487 40.8432C57.6433 40.8259 56.0165 40.3155 54.546 39.318L53.0243 38.2858V46.0472ZM59.7352 41.9436C59.9589 41.9387 60.1777 41.925 60.3916 41.9027C60.5131 41.89 60.6331 41.8745 60.7515 41.8562L57.4683 29.2472L53.6235 13.2685C53.6666 13.2493 53.7103 13.2366 53.7547 13.2301C54.0777 13.1822 54.4333 13.4589 54.814 13.922C55.2515 14.4541 55.7223 15.2323 56.215 16.0468C57.275 17.7992 58.4367 19.7198 59.5882 19.7198C63.1323 19.7198 66.0272 21.0371 68.2728 23.6718C70.2025 25.9359 70.1633 28.762 70.1164 32.15C70.109 32.6876 70.1014 33.2393 70.1014 33.8052C70.1014 34.5056 70.118 35.1812 70.1341 35.832C70.2081 38.8318 70.269 41.3031 68.6243 43.2461C66.613 45.5993 63.8988 46.7759 60.4815 46.7759C57.8259 46.7759 55.673 46.3087 54.023 45.3741V40.2568C54.3489 40.4779 54.6818 40.6772 55.0216 40.8549C56.4125 41.5821 57.9201 41.9457 59.5442 41.9457C59.6083 41.9457 59.6719 41.945 59.7352 41.9436ZM61.3843 41.7276C61.3695 41.399 61.3365 41.027 61.289 40.6196C61.2351 40.1582 61.1624 39.6513 61.0757 39.1108C60.8263 37.555 60.4612 35.7204 60.0965 33.8877C59.1663 29.2132 58.2383 24.55 59.2367 24.55C61.453 24.55 63.2251 25.3663 64.5529 26.9989C65.7198 28.4336 65.6887 31.6402 65.664 34.1845C65.6606 34.5354 65.6573 34.8737 65.6573 35.1931C65.6573 35.6132 65.6642 35.9719 65.6702 36.2848C65.701 37.8841 65.7088 38.2892 64.6554 39.5981C64.0091 40.4012 63.2458 40.9982 62.3656 41.3892C62.1605 41.4803 61.9492 41.5602 61.7314 41.6289C61.6175 41.6649 61.5018 41.6978 61.3843 41.7276ZM62.2509 40.2431C62.887 39.9146 63.436 39.4537 63.9087 38.8664C64.5036 38.1272 64.6011 37.8574 64.6451 37.5808C64.6743 37.3969 64.6837 37.1613 64.6793 36.7575C64.678 36.6337 64.6752 36.4902 64.6722 36.3303C64.6661 36.0095 64.6587 35.6223 64.6587 35.1931C64.6587 34.8495 64.6621 34.495 64.6656 34.1339C64.676 33.0478 64.687 31.9014 64.6076 30.8083C64.4981 29.3015 64.231 28.253 63.8097 27.735C62.8042 26.4987 61.4955 25.7987 59.805 25.6727C59.8012 26.0281 59.8362 26.5302 59.9155 27.1781C60.1135 28.7959 60.5422 30.9876 60.9967 33.2734C61.0227 33.4038 61.0487 33.5344 61.0747 33.6652C61.4995 35.7997 61.9337 37.9812 62.1803 39.7172C62.2056 39.8954 62.2292 40.0709 62.2509 40.2431Z" fill="#D2202F"/>
<path d="M47.7518 26.2168C47.7704 26.1611 47.8372 26.1221 47.9139 26.1221H56.0156C56.0887 26.1221 56.1533 26.1576 56.1751 26.2098L56.4884 26.9598C56.522 27.0403 56.4416 27.1221 56.3289 27.1221H47.6633C47.5546 27.1221 47.4748 27.0456 47.5012 26.9668L47.7518 26.2168Z" fill="#D2202F"/>
<path d="M281.77 21.437V32.4864H287.295C288.052 32.4864 288.764 32.3452 289.432 32.0629C290.099 31.7677 290.683 31.3699 291.184 30.8694C291.684 30.3689 292.075 29.785 292.358 29.1177C292.653 28.4375 292.801 27.7189 292.801 26.9617C292.801 26.2045 292.653 25.4923 292.358 24.825C292.075 24.1448 291.684 23.5545 291.184 23.054C290.683 22.5535 290.099 22.1621 289.432 21.8798C288.764 21.5846 288.052 21.437 287.295 21.437H281.77ZM281.77 43.5165H276.246V15.9124H287.295C288.309 15.9124 289.284 16.0471 290.221 16.3166C291.158 16.5733 292.031 16.9454 292.839 17.4331C293.66 17.9079 294.405 18.4854 295.072 19.1656C295.752 19.8329 296.33 20.5772 296.804 21.3985C297.292 22.2199 297.664 23.0989 297.921 24.0357C298.19 24.9726 298.325 25.9479 298.325 26.9617C298.325 28.476 298.036 29.9069 297.459 31.2544C296.881 32.589 296.092 33.7569 295.091 34.7579C294.09 35.7588 292.916 36.5481 291.569 37.1256C290.234 37.7031 288.809 37.9918 287.295 37.9918H281.77V43.5165Z" fill="#D2202F"/>
<path d="M265.927 32.4864V26.9617C265.927 26.2045 265.78 25.4923 265.484 24.825C265.202 24.1448 264.811 23.5545 264.31 23.054C263.81 22.5535 263.219 22.1621 262.539 21.8798C261.872 21.5846 261.16 21.437 260.402 21.437C259.645 21.437 258.927 21.5846 258.246 21.8798C257.579 22.1621 256.995 22.5535 256.495 23.054C255.994 23.5545 255.596 24.1448 255.301 24.825C255.019 25.4923 254.878 26.2045 254.878 26.9617V32.4864H265.927ZM271.452 43.5165H265.927V37.9918H254.878V43.5165H249.372V26.9617C249.372 25.4346 249.661 24.0037 250.239 22.669C250.816 21.3215 251.599 20.1473 252.587 19.1463C253.588 18.1453 254.756 17.3561 256.09 16.7786C257.438 16.2011 258.875 15.9124 260.402 15.9124C261.93 15.9124 263.36 16.2011 264.695 16.7786C266.043 17.3561 267.217 18.1453 268.218 19.1463C269.219 20.1473 270.008 21.3215 270.586 22.669C271.163 24.0037 271.452 25.4346 271.452 26.9617V43.5165Z" fill="#D2202F"/>
<path d="M223.962 24.1897C223.962 23.0476 224.18 21.976 224.617 20.975C225.053 19.974 225.643 19.1014 226.388 18.3571C227.145 17.5999 228.024 17.0032 229.025 16.5668C230.026 16.1305 231.097 15.9124 232.239 15.9124H244.906V21.437H232.239C231.854 21.437 231.495 21.5076 231.161 21.6488C230.828 21.7899 230.533 21.9889 230.276 22.2455C230.032 22.4893 229.84 22.7781 229.698 23.1118C229.557 23.4454 229.487 23.8047 229.487 24.1897C229.487 24.5747 229.557 24.9405 229.698 25.287C229.84 25.6206 230.032 25.9158 230.276 26.1725C230.533 26.4163 230.828 26.6088 231.161 26.75C231.495 26.8911 231.854 26.9617 232.239 26.9617H237.764C238.906 26.9617 239.978 27.1799 240.979 27.6162C241.993 28.0397 242.872 28.63 243.616 29.3872C244.373 30.1315 244.964 31.0106 245.387 32.0244C245.823 33.0254 246.041 34.0969 246.041 35.2391C246.041 36.3812 245.823 37.4528 245.387 38.4538C244.964 39.4548 244.373 40.3339 243.616 41.091C242.872 41.8353 241.993 42.4257 240.979 42.862C239.978 43.2983 238.906 43.5165 237.764 43.5165H225.502V37.9918H237.764C238.149 37.9918 238.508 37.9212 238.842 37.7801C239.176 37.6389 239.464 37.4464 239.708 37.2026C239.965 36.9459 240.164 36.6507 240.305 36.3171C240.446 35.9834 240.517 35.6241 240.517 35.2391C240.517 34.8541 240.446 34.4948 240.305 34.1611C240.164 33.8274 239.965 33.5387 239.708 33.2949C239.464 33.0382 239.176 32.8393 238.842 32.6981C238.508 32.557 238.149 32.4864 237.764 32.4864H232.239C231.097 32.4864 230.026 32.2682 229.025 31.8319C228.024 31.3956 227.145 30.8052 226.388 30.0609C225.643 29.3038 225.053 28.4247 224.617 27.4237C224.18 26.4099 223.962 25.3319 223.962 24.1897Z" fill="#D2202F"/>
<path d="M215.263 32.4864V26.9617C215.263 26.2045 215.115 25.4923 214.82 24.825C214.538 24.1448 214.146 23.5545 213.646 23.054C213.145 22.5535 212.555 22.1621 211.875 21.8798C211.208 21.5846 210.495 21.437 209.738 21.437C208.981 21.437 208.262 21.5846 207.582 21.8798C206.915 22.1621 206.331 22.5535 205.831 23.054C205.33 23.5545 204.932 24.1448 204.637 24.825C204.355 25.4923 204.214 26.2045 204.214 26.9617V32.4864H215.263ZM220.788 43.5165H215.263V37.9918H204.214V43.5165H198.708V26.9617C198.708 25.4346 198.997 24.0037 199.574 22.669C200.152 21.3215 200.935 20.1473 201.923 19.1463C202.924 18.1453 204.092 17.3561 205.426 16.7786C206.774 16.2011 208.211 15.9124 209.738 15.9124C211.265 15.9124 212.696 16.2011 214.031 16.7786C215.378 17.3561 216.553 18.1453 217.554 19.1463C218.555 20.1473 219.344 21.3215 219.921 22.669C220.499 24.0037 220.788 25.4346 220.788 26.9617V43.5165Z" fill="#D2202F"/>
<path d="M168.158 21.437V32.4864H173.682C174.44 32.4864 175.152 32.3452 175.819 32.0629C176.486 31.7677 177.07 31.3699 177.571 30.8694C178.071 30.3689 178.463 29.785 178.745 29.1177C179.04 28.4375 179.188 27.7189 179.188 26.9617C179.188 26.2045 179.04 25.4923 178.745 24.825C178.463 24.1448 178.071 23.5545 177.571 23.054C177.07 22.5535 176.486 22.1621 175.819 21.8798C175.152 21.5846 174.44 21.437 173.682 21.437H168.158ZM168.158 43.5165H162.633V15.9124H173.682C174.696 15.9124 175.672 16.0471 176.608 16.3166C177.545 16.5733 178.418 16.9454 179.226 17.4331C180.048 17.9079 180.792 18.4854 181.459 19.1656C182.139 19.8329 182.717 20.5772 183.192 21.3985C183.679 22.2199 184.052 23.0989 184.308 24.0357C184.578 24.9726 184.713 25.9479 184.713 26.9617C184.713 28.476 184.424 29.9069 183.846 31.2544C183.269 32.589 182.48 33.7569 181.479 34.7579C180.478 35.7588 179.303 36.5481 177.956 37.1256C176.621 37.7031 175.197 37.9918 173.682 37.9918H168.158V43.5165Z" fill="#D2202F"/>
<path d="M158.993 29.8297C158.993 31.1387 158.82 32.4028 158.473 33.6219C158.139 34.8282 157.665 35.964 157.049 37.0291C156.433 38.0815 155.688 39.0439 154.816 39.9166C153.943 40.7893 152.98 41.54 151.928 42.1688C150.876 42.7848 149.74 43.2596 148.521 43.5933C147.302 43.9398 146.038 44.113 144.729 44.113C143.42 44.113 142.156 43.9398 140.937 43.5933C139.73 43.2596 138.594 42.7848 137.529 42.1688C136.477 41.54 135.515 40.7893 134.642 39.9166C133.769 39.0439 133.018 38.0815 132.39 37.0291C131.774 35.964 131.292 34.8282 130.946 33.6219C130.612 32.4028 130.445 31.1387 130.445 29.8297C130.445 28.5207 130.612 27.2567 130.946 26.0375C131.292 24.8184 131.774 23.6826 132.39 22.6303C133.018 21.578 133.769 20.6155 134.642 19.7429C135.515 18.8702 136.477 18.1259 137.529 17.5099C138.594 16.8939 139.73 16.4191 140.937 16.0854C142.156 15.7389 143.42 15.5657 144.729 15.5657C146.038 15.5657 147.302 15.7389 148.521 16.0854C149.74 16.4191 150.876 16.8939 151.928 17.5099C152.98 18.1259 153.943 18.8702 154.816 19.7429C155.688 20.6155 156.433 21.578 157.049 22.6303C157.665 23.6826 158.139 24.8184 158.473 26.0375C158.82 27.2567 158.993 28.5207 158.993 29.8297ZM153.507 29.8297C153.507 28.6234 153.276 27.4877 152.814 26.4225C152.352 25.3445 151.723 24.4141 150.927 23.6313C150.144 22.8357 149.214 22.2068 148.136 21.7448C147.071 21.2828 145.935 21.0518 144.729 21.0518C143.51 21.0518 142.367 21.2828 141.302 21.7448C140.237 22.2068 139.307 22.8357 138.511 23.6313C137.715 24.4141 137.087 25.3445 136.625 26.4225C136.163 27.4877 135.932 28.6234 135.932 29.8297C135.932 31.036 136.163 32.1718 136.625 33.2369C137.087 34.2893 137.715 35.2132 138.511 36.0089C139.307 36.8046 140.237 37.4334 141.302 37.8954C142.367 38.3574 143.51 38.5884 144.729 38.5884C145.935 38.5884 147.071 38.3574 148.136 37.8954C149.214 37.4334 150.144 36.8046 150.927 36.0089C151.723 35.2132 152.352 34.2893 152.814 33.2369C153.276 32.1718 153.507 31.036 153.507 29.8297Z" fill="#D2202F"/>
<path d="M110.254 43.5165H104.729V15.9124H110.254V26.9617H121.284V15.9124H126.809V43.5165H121.284V32.4864H110.254V43.5165Z" fill="#D2202F"/>
<path d="M101.515 40.6868C100.231 41.7905 98.7941 42.6375 97.2028 43.2278C95.6115 43.8181 93.9624 44.1133 92.2556 44.1133C90.9466 44.1133 89.6826 43.9401 88.4634 43.5936C87.2571 43.2599 86.1213 42.7851 85.0562 42.1691C84.0039 41.5403 83.0414 40.7895 82.1687 39.9169C81.2961 39.0442 80.5453 38.0817 79.9165 37.0294C79.3005 35.9642 78.8193 34.8285 78.4728 33.6222C78.1391 32.403 77.9723 31.139 77.9723 29.83C77.9723 28.521 78.1391 27.2569 78.4728 26.0378C78.8193 24.8186 79.3005 23.6829 79.9165 22.6306C80.5453 21.5654 81.2961 20.5965 82.1687 19.7239C83.0414 18.8512 84.0039 18.1069 85.0562 17.4909C86.1213 16.8621 87.2571 16.3808 88.4634 16.0472C89.6826 15.7007 90.9466 15.5274 92.2556 15.5274C93.9624 15.5274 95.6115 15.8226 97.2028 16.4129C98.7941 16.9904 100.231 17.8374 101.515 18.9539L98.5888 23.7663C97.7803 22.8937 96.8242 22.2263 95.7206 21.7644C94.6169 21.2895 93.4619 21.0521 92.2556 21.0521C91.0364 21.0521 89.8943 21.2831 88.8291 21.7451C87.764 22.2071 86.8336 22.8359 86.0379 23.6316C85.2423 24.4144 84.6135 25.3448 84.1515 26.4228C83.6895 27.4879 83.4585 28.6237 83.4585 29.83C83.4585 31.0363 83.6895 32.172 84.1515 33.2372C84.6135 34.2895 85.2423 35.2135 86.0379 36.0092C86.8336 36.8048 87.764 37.4336 88.8291 37.8956C89.8943 38.3576 91.0364 38.5886 92.2556 38.5886C93.4619 38.5886 94.6169 38.3576 95.7206 37.8956C96.8242 37.4208 97.7803 36.7471 98.5888 35.8744L101.515 40.6868Z" fill="#D2202F"/>
</svg>
